<svg xmlns="http://www.w3.org/2000/svg" width="1440" height="900"><path d="M813,439L963,280L812,294Z" fill="#80c778" stroke="#80c778" stroke-width="1.51"/><path d="M813,439L977,466L963,280Z" fill="#6bbc6e" stroke="#6bbc6e" stroke-width="1.51"/><path d="M977,466L1124,448L963,280Z" fill="#62b166" stroke="#62b166" stroke-width="1.51"/><path d="M1124,448L1128,290L963,280Z" fill="#6cb168" stroke="#6cb168" stroke-width="1.51"/><path d="M813,439L804,606L977,466Z" fill="#56b467" stroke="#56b467" stroke-width="1.51"/><path d="M977,466L976,620L1124,448Z" fill="#45a35a" stroke="#45a35a" stroke-width="1.51"/><path d="M649,457L804,606L813,439Z" fill="#68bd6f" stroke="#68bd6f" stroke-width="1.51"/><path d="M963,280L805,122L812,294Z" fill="#96d082" stroke="#96d082" stroke-width="1.51"/><path d="M1126,99L957,115L963,280Z" fill="#91c47c" stroke="#91c47c" stroke-width="1.51"/><path d="M957,115L805,122L963,280Z" fill="#99d084" stroke="#99d084" stroke-width="1.51"/><path d="M812,294L649,457L813,439Z" fill="#80c97b" stroke="#80c97b" stroke-width="1.51"/><path d="M647,264L649,457L812,294Z" fill="#95d384" stroke="#95d384" stroke-width="1.51"/><path d="M804,606L976,620L977,466Z" fill="#40a85b" stroke="#40a85b" stroke-width="1.51"/><path d="M805,122L647,264L812,294Z" fill="#a4d98b" stroke="#a4d98b" stroke-width="1.51"/><path d="M1128,290L1126,99L963,280Z" fill="#84ba72" stroke="#84ba72" stroke-width="1.51"/><path d="M957,115L970,-50L805,122Z" fill="#a2d393" stroke="#a2d393" stroke-width="1.51"/><path d="M805,122L620,128L647,264Z" fill="#b5e094" stroke="#b5e094" stroke-width="1.51"/><path d="M647,264L454,296L649,457Z" fill="#a7da8b" stroke="#a7da8b" stroke-width="1.51"/><path d="M647,-53L620,128L805,122Z" fill="#bfe4a3" stroke="#bfe4a3" stroke-width="1.51"/><path d="M1124,448L1308,287L1128,290Z" fill="#65a663" stroke="#65a663" stroke-width="1.51"/><path d="M1128,290L1308,287L1126,99Z" fill="#7cb06d" stroke="#7cb06d" stroke-width="1.51"/><path d="M976,620L1155,624L1124,448Z" fill="#329650" stroke="#329650" stroke-width="1.51"/><path d="M804,606L808,783L976,620Z" fill="#3a9b53" stroke="#3a9b53" stroke-width="1.51"/><path d="M976,620L982,785L1155,624Z" fill="#278846" stroke="#278846" stroke-width="1.51"/><path d="M649,457L634,635L804,606Z" fill="#61b96c" stroke="#61b96c" stroke-width="1.51"/><path d="M471,612L634,635L649,457Z" fill="#73c072" stroke="#73c072" stroke-width="1.51"/><path d="M1315,452L1308,287L1124,448Z" fill="#549c5c" stroke="#549c5c" stroke-width="1.51"/><path d="M1126,99L970,-50L957,115Z" fill="#99c78c" stroke="#99c78c" stroke-width="1.51"/><path d="M634,635L808,783L804,606Z" fill="#4ca35b" stroke="#4ca35b" stroke-width="1.51"/><path d="M808,783L982,785L976,620Z" fill="#2a8e4b" stroke="#2a8e4b" stroke-width="1.51"/><path d="M1155,624L1315,452L1124,448Z" fill="#3a9452" stroke="#3a9452" stroke-width="1.51"/><path d="M620,128L454,296L647,264Z" fill="#bde496" stroke="#bde496" stroke-width="1.51"/><path d="M454,296L453,433L649,457Z" fill="#a2d889" stroke="#a2d889" stroke-width="1.51"/><path d="M970,-50L797,-72L805,122Z" fill="#abd9a3" stroke="#abd9a3" stroke-width="1.51"/><path d="M620,128L450,115L454,296Z" fill="#cdeb9f" stroke="#cdeb9f" stroke-width="1.51"/><path d="M1155,624L1301,632L1315,452Z" fill="#248849" stroke="#248849" stroke-width="1.51"/><path d="M1152,785L1301,632L1155,624Z" fill="#197a3e" stroke="#197a3e" stroke-width="1.51"/><path d="M797,-72L647,-53L805,122Z" fill="#b9e1ab" stroke="#b9e1ab" stroke-width="1.51"/><path d="M634,635L627,773L808,783Z" fill="#4f9f5c" stroke="#4f9f5c" stroke-width="1.51"/><path d="M474,784L627,773L634,635Z" fill="#61a662" stroke="#61a662" stroke-width="1.51"/><path d="M453,433L471,612L649,457Z" fill="#8acd7e" stroke="#8acd7e" stroke-width="1.51"/><path d="M982,785L1152,785L1155,624Z" fill="#1b7b3f" stroke="#1b7b3f" stroke-width="1.51"/><path d="M1126,99L1128,-73L970,-50Z" fill="#97c291" stroke="#97c291" stroke-width="1.51"/><path d="M1308,287L1312,102L1126,99Z" fill="#81af71" stroke="#81af71" stroke-width="1.51"/><path d="M1476,125L1312,102L1308,287Z" fill="#7aa16b" stroke="#7aa16b" stroke-width="1.51"/><path d="M970,-50L812,-212L797,-72Z" fill="#abd9a2" stroke="#abd9a2" stroke-width="1.51"/><path d="M1306,-73L1128,-73L1126,99Z" fill="#8fb88c" stroke="#8fb88c" stroke-width="1.51"/><path d="M290,277L293,460L453,433Z" fill="#b8e294" stroke="#b8e294" stroke-width="1.51"/><path d="M450,-53L450,115L620,128Z" fill="#d8efaf" stroke="#d8efaf" stroke-width="1.51"/><path d="M1315,452L1468,298L1308,287Z" fill="#5b955b" stroke="#5b955b" stroke-width="1.51"/><path d="M1301,632L1463,463L1315,452Z" fill="#30834b" stroke="#30834b" stroke-width="1.51"/><path d="M1463,463L1468,298L1315,452Z" fill="#4b8a54" stroke="#4b8a54" stroke-width="1.51"/><path d="M1128,-73L985,-209L970,-50Z" fill="#9bc795" stroke="#9bc795" stroke-width="1.51"/><path d="M797,-72L627,-215L647,-53Z" fill="#c1e5b0" stroke="#c1e5b0" stroke-width="1.51"/><path d="M985,-209L812,-212L970,-50Z" fill="#a3d39e" stroke="#a3d39e" stroke-width="1.51"/><path d="M647,-53L450,-53L620,128Z" fill="#d2ecb6" stroke="#d2ecb6" stroke-width="1.51"/><path d="M982,785L1157,944L1152,785Z" fill="#116c39" stroke="#116c39" stroke-width="1.51"/><path d="M808,783L970,946L982,785Z" fill="#227e45" stroke="#227e45" stroke-width="1.51"/><path d="M805,964L970,946L808,783Z" fill="#297945" stroke="#297945" stroke-width="1.51"/><path d="M1301,632L1495,633L1463,463Z" fill="#207642" stroke="#207642" stroke-width="1.51"/><path d="M1152,785L1294,794L1301,632Z" fill="#0a6f3a" stroke="#0a6f3a" stroke-width="1.51"/><path d="M1157,944L1294,794L1152,785Z" fill="#066435" stroke="#066435" stroke-width="1.51"/><path d="M644,969L805,964L808,783Z" fill="#3a804d" stroke="#3a804d" stroke-width="1.51"/><path d="M471,612L474,784L634,635Z" fill="#6eb068" stroke="#6eb068" stroke-width="1.51"/><path d="M287,627L474,784L471,612Z" fill="#7db76e" stroke="#7db76e" stroke-width="1.51"/><path d="M1312,102L1306,-73L1126,99Z" fill="#8ab282" stroke="#8ab282" stroke-width="1.51"/><path d="M1128,-73L1130,-235L985,-209Z" fill="#96c191" stroke="#96c191" stroke-width="1.51"/><path d="M1461,-65L1306,-73L1312,102Z" fill="#85a784" stroke="#85a784" stroke-width="1.51"/><path d="M644,969L808,783L627,773Z" fill="#468e54" stroke="#468e54" stroke-width="1.51"/><path d="M453,433L293,460L471,612Z" fill="#99d385" stroke="#99d385" stroke-width="1.51"/><path d="M290,277L453,433L454,296Z" fill="#bfe596" stroke="#bfe596" stroke-width="1.51"/><path d="M627,-215L450,-53L647,-53Z" fill="#d2ecb7" stroke="#d2ecb7" stroke-width="1.51"/><path d="M314,128L290,277L454,296Z" fill="#d8f0a2" stroke="#d8f0a2" stroke-width="1.51"/><path d="M314,128L454,296L450,115Z" fill="#daf0a5" stroke="#daf0a5" stroke-width="1.51"/><path d="M298,-42L314,128L450,115Z" fill="#ebf7b7" stroke="#ebf7b7" stroke-width="1.51"/><path d="M1645,290L1476,125L1468,298Z" fill="#6d9662" stroke="#6d9662" stroke-width="1.51"/><path d="M1468,298L1476,125L1308,287Z" fill="#6e9863" stroke="#6e9863" stroke-width="1.51"/><path d="M970,946L1157,944L982,785Z" fill="#166939" stroke="#166939" stroke-width="1.51"/><path d="M980,1130L1157,944L970,946Z" fill="#166839" stroke="#166839" stroke-width="1.51"/><path d="M812,-212L627,-215L797,-72Z" fill="#bae1ac" stroke="#bae1ac" stroke-width="1.51"/><path d="M985,-209L1130,-235L812,-212Z" fill="#9fcd99" stroke="#9fcd99" stroke-width="1.51"/><path d="M812,-212L482,-239L627,-215Z" fill="#c8e8b3" stroke="#c8e8b3" stroke-width="1.51"/><path d="M1292,-234L1130,-235L1128,-73Z" fill="#8fb88c" stroke="#8fb88c" stroke-width="1.51"/><path d="M474,784L644,969L627,773Z" fill="#57955b" stroke="#57955b" stroke-width="1.51"/><path d="M1488,775L1495,633L1301,632Z" fill="#116436" stroke="#116436" stroke-width="1.51"/><path d="M1463,463L1639,466L1468,298Z" fill="#498653" stroke="#498653" stroke-width="1.51"/><path d="M1488,775L1301,632L1294,794Z" fill="#096436" stroke="#096436" stroke-width="1.51"/><path d="M293,460L287,627L471,612Z" fill="#92ce7f" stroke="#92ce7f" stroke-width="1.51"/><path d="M474,784L454,955L644,969Z" fill="#5c8e5a" stroke="#5c8e5a" stroke-width="1.51"/><path d="M136,438L287,627L293,460Z" fill="#a8d88d" stroke="#a8d88d" stroke-width="1.51"/><path d="M1306,-73L1292,-234L1128,-73Z" fill="#8cb48a" stroke="#8cb48a" stroke-width="1.51"/><path d="M1476,125L1461,-65L1312,102Z" fill="#80a078" stroke="#80a078" stroke-width="1.51"/><path d="M1157,944L1314,947L1294,794Z" fill="#015830" stroke="#015830" stroke-width="1.51"/><path d="M1157,1126L1314,947L1157,944Z" fill="#055a31" stroke="#055a31" stroke-width="1.51"/><path d="M1492,-222L1292,-234L1306,-73Z" fill="#85a784" stroke="#85a784" stroke-width="1.51"/><path d="M1314,947L1488,775L1294,794Z" fill="#005530" stroke="#005530" stroke-width="1.51"/><path d="M316,-228L298,-42L450,-53Z" fill="#edf8c4" stroke="#edf8c4" stroke-width="1.51"/><path d="M450,-53L298,-42L450,115Z" fill="#e7f6c0" stroke="#e7f6c0" stroke-width="1.51"/><path d="M136,291L136,438L290,277Z" fill="#d2eda3" stroke="#d2eda3" stroke-width="1.51"/><path d="M627,-215L482,-239L450,-53Z" fill="#d9efba" stroke="#d9efba" stroke-width="1.51"/><path d="M1130,-235L482,-239L812,-212Z" fill="#b2dca7" stroke="#b2dca7" stroke-width="1.51"/><path d="M287,788L454,955L474,784Z" fill="#6e9e64" stroke="#6e9e64" stroke-width="1.51"/><path d="M287,627L287,788L474,784Z" fill="#7eb26e" stroke="#7eb26e" stroke-width="1.51"/><path d="M1639,626L1639,466L1495,633Z" fill="#207441" stroke="#207441" stroke-width="1.51"/><path d="M1495,633L1639,466L1463,463Z" fill="#2d7b47" stroke="#2d7b47" stroke-width="1.51"/><path d="M1476,125L1642,-55L1461,-65Z" fill="#819e80" stroke="#819e80" stroke-width="1.51"/><path d="M1639,466L1645,290L1468,298Z" fill="#578c58" stroke="#578c58" stroke-width="1.51"/><path d="M287,627L116,628L287,788Z" fill="#8ebd78" stroke="#8ebd78" stroke-width="1.51"/><path d="M290,277L136,438L293,460Z" fill="#c1e59b" stroke="#c1e59b" stroke-width="1.51"/><path d="M136,291L290,277L142,116Z" fill="#e7f5ad" stroke="#e7f5ad" stroke-width="1.51"/><path d="M142,116L290,277L314,128Z" fill="#eaf6af" stroke="#eaf6af" stroke-width="1.51"/><path d="M804,1134L805,964L635,1115Z" fill="#3b814d" stroke="#3b814d" stroke-width="1.51"/><path d="M804,1134L980,1130L805,964Z" fill="#287945" stroke="#287945" stroke-width="1.51"/><path d="M805,964L980,1130L970,946Z" fill="#207441" stroke="#207441" stroke-width="1.51"/><path d="M635,1115L805,964L644,969Z" fill="#438451" stroke="#438451" stroke-width="1.51"/><path d="M1488,775L1639,626L1495,633Z" fill="#116336" stroke="#116336" stroke-width="1.51"/><path d="M1805,129L1663,97L1645,290Z" fill="#769967" stroke="#769967" stroke-width="1.51"/><path d="M1654,782L1639,626L1488,775Z" fill="#095d33" stroke="#095d33" stroke-width="1.51"/><path d="M454,955L635,1115L644,969Z" fill="#548b57" stroke="#548b57" stroke-width="1.51"/><path d="M145,-60L142,116L298,-42Z" fill="#fafdcd" stroke="#fafdcd" stroke-width="1.51"/><path d="M298,-42L142,116L314,128Z" fill="#f3fabe" stroke="#f3fabe" stroke-width="1.51"/><path d="M1314,947L1491,950L1488,775Z" fill="#00472a" stroke="#00472a" stroke-width="1.51"/><path d="M980,1130L1157,1126L1157,944Z" fill="#106235" stroke="#106235" stroke-width="1.51"/><path d="M1324,1129L1157,1126L980,1130Z" fill="#0a5e33" stroke="#0a5e33" stroke-width="1.51"/><path d="M1461,-65L1492,-222L1306,-73Z" fill="#82a082" stroke="#82a082" stroke-width="1.51"/><path d="M1645,290L1663,97L1476,125Z" fill="#779968" stroke="#779968" stroke-width="1.51"/><path d="M1806,299L1645,290L1822,434Z" fill="#598d58" stroke="#598d58" stroke-width="1.51"/><path d="M136,438L116,628L287,627Z" fill="#a1d38a" stroke="#a1d38a" stroke-width="1.51"/><path d="M287,788L280,958L454,955Z" fill="#719763" stroke="#719763" stroke-width="1.51"/><path d="M-28,464L116,628L136,438Z" fill="#afdb9d" stroke="#afdb9d" stroke-width="1.51"/><path d="M-28,464L136,438L136,291Z" fill="#c7e8a9" stroke="#c7e8a9" stroke-width="1.51"/><path d="M482,-239L316,-228L450,-53Z" fill="#e5f5c0" stroke="#e5f5c0" stroke-width="1.51"/><path d="M1464,1121L1491,950L1314,947Z" fill="#00462a" stroke="#00462a" stroke-width="1.51"/><path d="M1642,-55L1492,-222L1461,-65Z" fill="#819e81" stroke="#819e81" stroke-width="1.51"/><path d="M454,955L456,1140L635,1115Z" fill="#5d8f5a" stroke="#5d8f5a" stroke-width="1.51"/><path d="M124,799L280,958L287,788Z" fill="#7ea46d" stroke="#7ea46d" stroke-width="1.51"/><path d="M1663,97L1642,-55L1476,125Z" fill="#7f9d77" stroke="#7f9d77" stroke-width="1.51"/><path d="M-45,265L-28,464L136,291Z" fill="#d5eeb7" stroke="#d5eeb7" stroke-width="1.51"/><path d="M316,-228L145,-60L298,-42Z" fill="#f5fbcb" stroke="#f5fbcb" stroke-width="1.51"/><path d="M1491,950L1654,782L1488,775Z" fill="#004f2d" stroke="#004f2d" stroke-width="1.51"/><path d="M1822,434L1645,290L1639,466Z" fill="#4c8854" stroke="#4c8854" stroke-width="1.51"/><path d="M1157,1126L1324,1129L1314,947Z" fill="#005630" stroke="#005630" stroke-width="1.51"/><path d="M1491,950L1663,963L1654,782Z" fill="#004529" stroke="#004529" stroke-width="1.51"/><path d="M804,1134L1324,1129L980,1130Z" fill="#166839" stroke="#166839" stroke-width="1.51"/><path d="M116,628L124,799L287,788Z" fill="#8cb778" stroke="#8cb778" stroke-width="1.51"/><path d="M286,1137L456,1140L454,955Z" fill="#6b9560" stroke="#6b9560" stroke-width="1.51"/><path d="M635,1115L456,1140L804,1134Z" fill="#4d8854" stroke="#4d8854" stroke-width="1.51"/><path d="M804,1134L456,1140L1324,1129Z" fill="#287945" stroke="#287945" stroke-width="1.51"/><path d="M286,1137L454,955L280,958Z" fill="#719763" stroke="#719763" stroke-width="1.51"/><path d="M1822,434L1639,466L1817,620Z" fill="#317c49" stroke="#317c49" stroke-width="1.51"/><path d="M1663,97L1800,-74L1642,-55Z" fill="#819e81" stroke="#819e81" stroke-width="1.51"/><path d="M-45,265L136,291L142,116Z" fill="#ebf7ba" stroke="#ebf7ba" stroke-width="1.51"/><path d="M116,628L-52,797L124,799Z" fill="#8eb785" stroke="#8eb785" stroke-width="1.51"/><path d="M1817,620L1639,466L1639,626Z" fill="#207541" stroke="#207541" stroke-width="1.51"/><path d="M1822,434L1805,129L1806,299Z" fill="#64925d" stroke="#64925d" stroke-width="1.51"/><path d="M1806,299L1805,129L1645,290Z" fill="#6c9661" stroke="#6c9661" stroke-width="1.51"/><path d="M1800,-74L1631,-221L1642,-55Z" fill="#819e81" stroke="#819e81" stroke-width="1.51"/><path d="M1642,-55L1631,-221L1492,-222Z" fill="#819e81" stroke="#819e81" stroke-width="1.51"/><path d="M1492,-222L1631,-221L1292,-234Z" fill="#819e81" stroke="#819e81" stroke-width="1.51"/><path d="M-29,99L-45,265L142,116Z" fill="#f4fbc8" stroke="#f4fbc8" stroke-width="1.51"/><path d="M1324,1129L1464,1121L1314,947Z" fill="#004c2c" stroke="#004c2c" stroke-width="1.51"/><path d="M1654,782L1817,620L1639,626Z" fill="#116436" stroke="#116436" stroke-width="1.51"/><path d="M1812,779L1817,620L1654,782Z" fill="#095d33" stroke="#095d33" stroke-width="1.51"/><path d="M145,-60L-29,99L142,116Z" fill="#fcfed1" stroke="#fcfed1" stroke-width="1.51"/><path d="M-35,-44L-29,99L145,-60Z" fill="#ffffe2" stroke="#ffffe2" stroke-width="1.51"/><path d="M-28,464L-40,602L116,628Z" fill="#a4d59d" stroke="#a4d59d" stroke-width="1.51"/><path d="M-204,602L-40,602L-28,464Z" fill="#a7d7a0" stroke="#a7d7a0" stroke-width="1.51"/><path d="M316,-228L128,-220L145,-60Z" fill="#fafdce" stroke="#fafdce" stroke-width="1.51"/><path d="M-40,-228L128,-220L316,-228Z" fill="#fcfed5" stroke="#fcfed5" stroke-width="1.51"/><path d="M1640,1117L1663,963L1491,950Z" fill="#004529" stroke="#004529" stroke-width="1.51"/><path d="M-43,954L120,956L124,799Z" fill="#809d79" stroke="#809d79" stroke-width="1.51"/><path d="M124,799L120,956L280,958Z" fill="#7e9c6d" stroke="#7e9c6d" stroke-width="1.51"/><path d="M123,1110L286,1137L280,958Z" fill="#7a9b6a" stroke="#7a9b6a" stroke-width="1.51"/><path d="M1813,945L1812,779L1654,782Z" fill="#004f2d" stroke="#004f2d" stroke-width="1.51"/><path d="M1805,129L1800,-74L1663,97Z" fill="#809d78" stroke="#809d78" stroke-width="1.51"/><path d="M1812,-219L1800,-74L1805,129Z" fill="#819e81" stroke="#819e81" stroke-width="1.51"/><path d="M128,-220L-35,-44L145,-60Z" fill="#fefedc" stroke="#fefedc" stroke-width="1.51"/><path d="M-222,97L-197,277L-45,265Z" fill="#eef8c5" stroke="#eef8c5" stroke-width="1.51"/><path d="M-40,602L-52,797L116,628Z" fill="#96c190" stroke="#96c190" stroke-width="1.51"/><path d="M120,956L123,1110L280,958Z" fill="#7e9c6d" stroke="#7e9c6d" stroke-width="1.51"/><path d="M-190,783L-52,797L-40,602Z" fill="#91ba8d" stroke="#91ba8d" stroke-width="1.51"/><path d="M1663,963L1813,945L1654,782Z" fill="#004529" stroke="#004529" stroke-width="1.51"/><path d="M1464,1121L1640,1117L1491,950Z" fill="#004529" stroke="#004529" stroke-width="1.51"/><path d="M1811,1124L1640,1117L1464,1121Z" fill="#004529" stroke="#004529" stroke-width="1.51"/><path d="M-47,1108L123,1110L120,956Z" fill="#809d79" stroke="#809d79" stroke-width="1.51"/><path d="M1811,1124L1813,945L1663,963Z" fill="#004529" stroke="#004529" stroke-width="1.51"/><path d="M1812,779L1813,945L1817,620Z" fill="#015730" stroke="#015730" stroke-width="1.51"/><path d="M1817,620L1813,945L1822,434Z" fill="#136537" stroke="#136537" stroke-width="1.51"/><path d="M1800,-74L1812,-219L1631,-221Z" fill="#819e81" stroke="#819e81" stroke-width="1.51"/><path d="M1631,-221L1812,-219L1292,-234Z" fill="#819e81" stroke="#819e81" stroke-width="1.51"/><path d="M1822,434L1812,-219L1805,129Z" fill="#7d9c6d" stroke="#7d9c6d" stroke-width="1.51"/><path d="M-45,265L-197,277L-28,464Z" fill="#d7eeb9" stroke="#d7eeb9" stroke-width="1.51"/><path d="M-222,97L-45,265L-29,99Z" fill="#f6fccb" stroke="#f6fccb" stroke-width="1.51"/><path d="M-190,783L-43,954L-52,797Z" fill="#86a885" stroke="#86a885" stroke-width="1.51"/><path d="M-52,797L-43,954L124,799Z" fill="#85a783" stroke="#85a783" stroke-width="1.51"/><path d="M128,-220L-40,-228L-35,-44Z" fill="#ffffe3" stroke="#ffffe3" stroke-width="1.51"/><path d="M-35,-44L-222,97L-29,99Z" fill="#fefedb" stroke="#fefedb" stroke-width="1.51"/><path d="M482,-239L-40,-228L316,-228Z" fill="#f5fbcb" stroke="#f5fbcb" stroke-width="1.51"/><path d="M-197,277L-213,455L-28,464Z" fill="#c9e8b3" stroke="#c9e8b3" stroke-width="1.51"/><path d="M-213,455L-204,602L-28,464Z" fill="#b1dca7" stroke="#b1dca7" stroke-width="1.51"/><path d="M-197,277L-222,97L-213,455Z" fill="#e2f3bf" stroke="#e2f3bf" stroke-width="1.51"/><path d="M-196,-66L-222,97L-35,-44Z" fill="#ffffe5" stroke="#ffffe5" stroke-width="1.51"/><path d="M-204,602L-190,783L-40,602Z" fill="#98c392" stroke="#98c392" stroke-width="1.51"/><path d="M-40,-228L-196,-66L-35,-44Z" fill="#ffffe5" stroke="#ffffe5" stroke-width="1.51"/><path d="M1640,1117L1811,1124L1663,963Z" fill="#004529" stroke="#004529" stroke-width="1.51"/><path d="M1813,945L1811,1124L1822,434Z" fill="#004f2d" stroke="#004f2d" stroke-width="1.51"/><path d="M1324,1129L1811,1124L1464,1121Z" fill="#004529" stroke="#004529" stroke-width="1.51"/><path d="M456,1140L1811,1124L1324,1129Z" fill="#065b32" stroke="#065b32" stroke-width="1.51"/><path d="M-224,954L-47,1108L-43,954Z" fill="#819e81" stroke="#819e81" stroke-width="1.51"/><path d="M-43,954L-47,1108L120,956Z" fill="#819e80" stroke="#819e80" stroke-width="1.51"/><path d="M123,1110L-47,1108L286,1137Z" fill="#7f9d73" stroke="#7f9d73" stroke-width="1.51"/><path d="M-196,-66L-210,-222L-222,97Z" fill="#ffffe5" stroke="#ffffe5" stroke-width="1.51"/><path d="M-40,-228L-210,-222L-196,-66Z" fill="#ffffe5" stroke="#ffffe5" stroke-width="1.51"/><path d="M-190,783L-224,954L-43,954Z" fill="#819e81" stroke="#819e81" stroke-width="1.51"/><path d="M-204,602L-224,954L-190,783Z" fill="#8bb38a" stroke="#8bb38a" stroke-width="1.51"/><path d="M-213,455L-224,954L-204,602Z" fill="#97c291" stroke="#97c291" stroke-width="1.51"/><path d="M-222,97L-224,954L-213,455Z" fill="#b2dda7" stroke="#b2dda7" stroke-width="1.51"/><path d="M-47,1108L-218,1127L286,1137Z" fill="#819e80" stroke="#819e80" stroke-width="1.51"/><path d="M-224,954L-218,1127L-47,1108Z" fill="#819e81" stroke="#819e81" stroke-width="1.51"/></svg>